<?xml version="1.0" encoding="utf-8"?>
<!-- Generator: Adobe Illustrator 24.1.3, SVG Export Plug-In . SVG Version: 6.00 Build 0)  -->
<svg version="1.1" id="Layer_1" xmlns="http://www.w3.org/2000/svg" xmlns:xlink="http://www.w3.org/1999/xlink" x="0px" y="0px"
	 viewBox="0 0 217.3 124.2" style="enable-background:new 0 0 217.3 124.2;" xml:space="preserve">
<style type="text/css">
	.st0{fill:#D51920;}
	.st1{fill:#FFFFFF;}
</style>
<g>
	<rect x="12.7" y="0.1" class="st0" width="196.1" height="90"/>
	<g>
		<path d="M9.9,112H6.6L6,105h3.3L9.9,112z M207.2,112h3.3l0.6-7h-3.3L207.2,112z M4,105H0.8l0.6,7h3.3L4,105z M212.4,112h3.3l0.6-7
			H213L212.4,112z M26.3,113.7c0,2.5-1.8,4.6-4.4,4.6c-2.6,0-4.5-2.2-4.5-4.6v0c0-2.5,1.8-4.6,4.4-4.6
			C24.5,109.1,26.3,111.2,26.3,113.7L26.3,113.7 M12.5,113.7c0,4.9,4,8.9,9.4,8.9c5.4,0,9.4-4,9.4-8.9v0c0-4.9-4-8.9-9.4-8.9
			C16.5,104.8,12.5,108.8,12.5,113.7L12.5,113.7 M34.3,122.2h4.8v-6.1h8.2v-3.9h-8.2v-2.9h9.1v-4.2H34.3V122.2z M51,122.2h4.8v-6.1
			h8.2v-3.9h-8.2v-2.9H65v-4.2H51V122.2z M78.6,122.2h4.8v-13h5.2v-4.2H73.3v4.2h5.2V122.2z M91.8,122.2h4.8v-6.5h6.2v6.5h4.8v-17.1
			h-4.8v6.4h-6.2v-6.4h-4.8V122.2z M110.9,122.2h14.1v-4h-9.4v-2.7h8.4v-3.7h-8.4v-2.6h9.2v-4h-14V122.2z M138.3,122.4h4.2l3.5-9.9
			l3.5,9.9h4.2l5.8-17.3h-5l-3,9.9l-3.4-10H144l-3.4,10l-3-9.9h-5.1L138.3,122.4z M165.2,115.5l2-4.9l1.9,4.9H165.2z M157.5,122.2
			h5.1l1.2-3.1h6.7l1.3,3.1h5.2l-7.4-17.3h-4.7L157.5,122.2z M179.3,122.2h13.3v-4.2h-8.4v-13h-4.8V122.2z M195.2,122.2h13.3v-4.2
			h-8.4v-13h-4.8V122.2z M216.5,120.3c0-1.1-0.9-2.1-2.1-2.1c-1.2,0-2.1,0.9-2.1,2.1c0,1.1,0.9,2.1,2.1,2.1
			C215.6,122.3,216.5,121.4,216.5,120.3z M216.3,120.3c0,1-0.8,1.8-1.8,1.8c-1,0-1.8-0.8-1.8-1.8c0-1,0.8-1.8,1.8-1.8
			C215.5,118.4,216.3,119.2,216.3,120.3z M215.4,119.8c0-0.5-0.3-0.7-0.9-0.7h-1v2.2h0.5v-0.7h0.4l0.5,0.7h0.6l-0.5-0.8
			C215.3,120.4,215.4,120.2,215.4,119.8z M215,119.9c0,0.2-0.1,0.3-0.4,0.3h-0.5v-0.6h0.5C214.8,119.5,215,119.6,215,119.9z"/>
	</g>
	<path class="st1" d="M188,44.5h-9.4c-0.9-2.3-1.9-4.1-7.2-4.1c-3.6,0-5.2,1.5-5.2,3c0,1.6,1.3,3,5.3,3.9l8.5,2.3
		c5.6,1.5,8.2,5.9,8.2,10.5c0,2.6-0.6,5.7-3,8.3c-1.8,1.9-4.6,4.4-13.8,4.4c-12.7,0-16.8-8-16.8-12.9h9.9c1,3.5,3.4,4.9,8.2,4.9
		c3.3,0,6.2-1.2,6.2-3.7c0-2.4-2.1-3.3-4.7-4.1l-6.7-1.8c-3.2-1-5.9-1.8-7.8-3.4c-5-4.2-4.6-11.9,0.8-15.8c3-2.2,6.1-3.3,11-3.3
		c5.7,0,9,1.6,11.6,3.4C185.2,37.7,188,41.5,188,44.5 M29.8,17.4c0.1,0.3,19.6,55,19.6,55H61L79,26.9h111.5l0.8-9.5H70.4L55.5,55.1
		L42.1,17.4H29.8 M126.2,52.7l14.5,19.6h9.1V33.5h-10.5v21.1l-13.2-21.1h-10.1v38.9h10.1V52.7z M191.7,70.4c0-1.1-0.9-2.1-2.1-2.1
		c-1.2,0-2.1,0.9-2.1,2.1c0,1.1,0.9,2.1,2.1,2.1C190.8,72.4,191.7,71.5,191.7,70.4z M191.5,70.4c0,1-0.8,1.8-1.8,1.8
		c-1,0-1.8-0.8-1.8-1.8c0-1,0.8-1.8,1.8-1.8C190.7,68.5,191.5,69.4,191.5,70.4z M190.6,69.9c0-0.5-0.3-0.7-0.9-0.7h-1v2.2h0.5v-0.7
		h0.4l0.5,0.7h0.6l-0.5-0.8C190.4,70.5,190.6,70.3,190.6,69.9z M190.1,70c0,0.2-0.1,0.3-0.4,0.3h-0.5v-0.6h0.5
		C190,69.6,190.1,69.8,190.1,70z M70.6,72.4h11.2l2.1-6.1h14.8l2.1,6.1h11L97.8,33.5H85.9L70.6,72.4z M87,59.3l4.3-12.9l4.3,12.9H87
		z"/>
</g>
</svg>
